<svg xmlns="http://www.w3.org/2000/svg" viewBox="0 0 368.97 110.82"><defs><style>.cls-1{fill:#231f20;}.cls-2{fill:#60a0be;}</style></defs><g id="Layer_2" data-name="Layer 2"><g id="Layer_1-2" data-name="Layer 1"><path class="cls-1" d="M23.34,69.22a7.38,7.38,0,0,0,7.05,4.62c3.24,0,4.62-1.16,4.62-2.31,0-1.85-1.61-2.2-4.73-2.54L18.6,67.14C7.28,65.4.69,60.09.69,49.34.69,35.71,13.4,28.43,28.2,28.43c16.17,0,26,5.54,29.11,15.83L35.59,48.53a7.29,7.29,0,0,0-7.05-4.62c-2.77,0-4.16,1.16-4.16,2.31,0,.93.7,1.85,3,2.31L40.56,51C53.16,53.27,58.7,60.44,58.7,70.6c0,13.06-12.71,20-28.42,20C14.79,90.6,3,85.51,0,73.84Z"/><path class="cls-2" d="M93,13.17c0,7.51-5.66,13.18-13.63,13.18S65.87,20.68,65.87,13.17a13.58,13.58,0,0,1,27.15,0Z"/><rect class="cls-1" x="67.02" y="30.16" width="24.84" height="58.7"/><path class="cls-1" d="M169.17,82.74c0,18.14-16.64,28.08-35.94,28.08-13,0-24-4.51-31-16.64l21.26-6.13c4,4.39,6.58,4.74,9.47,4.74,5.78,0,11.33-2.66,11.33-10.05V79.39c-3.82,4-9.25,6.24-16.06,6.24-16.76,0-28.08-11.44-28.08-28.89,0-17,11.32-28.31,28.08-28.31,6.81,0,12.24,2.19,16.06,6.12V30.16h24.84Zm-25-26A9.38,9.38,0,0,0,134.62,47c-6,0-9.59,4.51-9.59,9.71a9.59,9.59,0,1,0,19.18,0Z"/><path class="cls-1" d="M226.49,29.81l-.81,26.12h-3.47c-10.63,0-18.72,2.77-18.72,15.71V88.86H178.65V30.16h24.84V42.29c3.24-7.39,8.78-12.82,18.72-12.82A24,24,0,0,1,226.49,29.81Z"/><path class="cls-1" d="M296.05,88.86H271.21V82.51A22.63,22.63,0,0,1,254,90.6c-12.83,0-21.38-8.79-21.38-23.81V30.16h24.85V61.48c0,4.27,2.65,7.16,6.47,7.16,4.39,0,7.28-3.47,7.28-8.78V30.16h24.84ZM252.14,23.34l9.24-19.41h30.05L275.6,23.34Z"/><path class="cls-1" d="M369,52.23V88.86H344.12V57.55c0-4.28-2.66-7.17-6.47-7.17-4.39,0-7.28,3.47-7.28,8.78v29.7H305.53V30.16h24.84v6.36a22.63,22.63,0,0,1,17.22-8.09C360.41,28.43,369,37.21,369,52.23Z"/></g></g></svg>