<svg width="161" height="34" viewBox="0 0 161 34" fill="none" xmlns="http://www.w3.org/2000/svg">
<g clip-path="url(#clip0_47531_1420)">
<path d="M13.9189 14.703L6.05929 0.269531H0V33.2559H7.17748V15.0096L13.9189 25.5331L20.8792 14.875V33.2559H28.1856V0.269531H21.9532L13.9189 14.703Z" fill="#563026"/>
<path d="M55.8605 26.5145H42.0723V20.0439H53.6411V13.2583H42.0723V7.01093H55.5551V0.269531H34.7642V33.2559H55.8605V26.5145Z" fill="#563026"/>
<path d="M81.0207 32.8214H81.0257V32.8197V25.8654C80.8578 25.9505 80.6796 26.0238 80.498 26.0902C80.1977 26.201 79.8838 26.2913 79.5648 26.3611C77.4167 26.8262 75.0259 26.4378 75.0259 26.4378V26.4344C72.7555 26.1379 70.626 25.1856 67.6346 25.7103L79.9907 6.93767V0.269531H60.1042V7.01092H72.6418L59.5137 26.7104V33.8078L61.6941 33.0463C71.6475 30.1722 73.5938 35.4825 81.019 32.818L81.0207 32.8214Z" fill="#563026"/>
<path d="M129.795 26.5145H118.052V0.269531H110.744V33.2559H129.795V26.5145Z" fill="#563026"/>
<path d="M143.37 0.269531L131.974 33.2559H139.673L141.152 28.4924H151.287L152.897 33.2559H160.465L148.981 0.269531H143.37ZM143.195 21.705L146.283 12.4473L149.458 21.705H143.195Z" fill="#563026"/>
<path d="M96.6906 26.7835C92.8626 26.7835 90.2529 23.2774 90.2529 19.1886V14.2463C90.2529 10.3364 92.5148 6.74164 96.5599 6.74164C99.5175 6.74164 100.822 8.13524 101.387 9.43854L106.39 5.39405C104.476 1.66473 101.04 0.00195312 96.4717 0.00195312C90.1002 0.00195312 85.9583 3.50298 84.0307 8.01428C83.8916 8.34138 83.7576 8.67189 83.6405 9.00751C83.0602 10.6839 82.77 12.4694 82.77 14.2463V19.1886C82.77 20.8701 83.0619 22.5261 83.593 24.0866C83.9527 25.1412 84.4193 26.1532 85.0013 27.0936C87.3361 30.8621 91.3949 33.5249 96.6889 33.5249C100.473 33.5249 103.257 32.4448 106.78 28.2214L102.779 23.5926C100.386 26.0646 98.5164 26.7835 96.6889 26.7835H96.6906Z" fill="#563026"/>
<path d="M154.905 0.243652C155.95 0.243652 156.793 1.10059 156.793 2.15005C156.793 3.19951 155.948 4.06156 154.905 4.06156C153.861 4.06156 153.031 3.1978 153.031 2.15005C153.031 1.1023 153.864 0.243652 154.905 0.243652ZM154.905 3.68676C155.727 3.68676 156.377 3.02062 156.377 2.15175C156.377 1.28289 155.729 0.621866 154.905 0.621866C154.08 0.621866 153.433 1.28289 153.433 2.15175C153.433 3.02062 154.082 3.68676 154.905 3.68676ZM154.667 3.17395H154.277V1.09719H154.993C155.395 1.09719 155.694 1.3817 155.694 1.74799C155.694 2.03761 155.509 2.27442 155.24 2.36301L155.704 3.17395H155.256L154.823 2.39879H154.669V3.17395H154.667ZM154.935 2.05805C155.166 2.05805 155.295 1.94391 155.295 1.7531C155.295 1.55207 155.166 1.43792 154.935 1.43792H154.667V2.05805H154.935Z" fill="#563026"/>
</g>
<defs>
<clipPath id="clip0_47531_1420">
<rect width="161" height="34" fill="white"/>
</clipPath>
</defs>
</svg>
