<?xml version="1.0" standalone="no"?>
<!DOCTYPE svg PUBLIC "-//W3C//DTD SVG 1.1//EN" "http://www.w3.org/Graphics/SVG/1.1/DTD/svg11.dtd">
<svg xmlns="http://www.w3.org/2000/svg" id="Layer_1" data-name="Layer 1" viewBox="0 0 905.14 178.65" width="905.1400146484375" height="178.64999389648438">
  <defs>
    <style>
      .cls-1 {
        fill: #00fc39;
      }
    </style>
  </defs>
  <g>
    <g>
      <path class="cls-1" d="M712.2,150.86c-.79-1.13-.79-1.63.54-2.29,3.06-1.54,5.61-3.72,7.62-6.53,5.51-7.73,6.06-16,2.03-24.37-3.83-7.94-10.82-11.7-19.39-11.88-13.8-.29-27.62-.08-41.43-.11-1.26-.01-1.74.36-1.74,1.71.03,21.47.03,42.93,0,64.38,0,1.38.48,1.83,1.83,1.83,8.53-.04,17.08-.04,25.61,0,1.34,0,1.93-.44,1.88-1.83-.07-1.85-.02-3.72-.02-5.57h0c.13-.04.26-.09.39-.13,1.54,2.12,3.09,4.24,4.6,6.39.56.82,1.2,1.15,2.2,1.15,9.65-.02,19.3-.02,28.95-.02.59,0,1.27.17,1.66-.48.43-.75-.15-1.24-.53-1.77-4.73-6.84-9.45-13.68-14.24-20.49h.04ZM694.03,128.99c-.35,1.59-2.34,2.69-3.9,2.31-.59-.14-.64-.51-.64-.97v-1.99c0-.16-.04-.34,0-.5.18-.8-.56-1.96.57-2.34.99-.34,2.08-.01,2.94.71.87.73,1.29,1.66,1.03,2.78h0Z"/>
      <path class="cls-1" d="M866.05,155.52c-.01-2.16-.09-2.24-2.26-2.24h-30.95c-1.16,0-2.06.13-2.09-1.63-.04-1.88.94-1.72,2.16-1.72,6.16.02,12.32,0,18.48,0,2.2,0,2.29-.09,2.29-2.2,0-5.38-.05-10.76.03-16.14.03-1.6-.46-2.1-2.07-2.08-6.33.08-12.64,0-18.97.06-1.45.01-1.86-.41-1.89-1.88-.03-1.63.77-1.6,1.93-1.6,10.37.02,20.74.01,31.12.01,2.04,0,2.21-.16,2.21-2.15.01-5.32.01-10.66,0-15.98-.01-2.15-.13-2.27-2.24-2.27h-62.08c-2.19,0-2.19.01-2.19,2.26v31.62h.02c0,10.67.03,21.31-.03,31.96-.01,1.59.42,2.1,2.05,2.1,20.8-.05,41.61-.05,62.41,0,1.66,0,2.11-.61,2.1-2.14-.05-5.32-.02-10.66-.02-15.98h-.01Z"/>
      <path class="cls-1" d="M623.39,126.07c10.43.05,20.85,0,31.29.05,1.59.01,2.16-.52,2.14-2.11-.07-5.33-.03-10.66-.03-15.98,0-2.27-.08-2.34-2.33-2.34h-61.91c-2.27,0-2.27.01-2.27,2.35v31.61l-.02.02c0,10.6.04,21.19-.03,31.78-.01,1.66.43,2.18,2.14,2.18,20.74-.06,41.49-.04,62.23-.04,2.01,0,2.16-.14,2.16-2.18v-15.82c0-2.3-.05-2.34-2.32-2.34-10.38,0-20.74-.03-31.12.02-1.31,0-1.82-.26-1.83-1.71-.02-1.54.64-1.66,1.88-1.66,6.27.04,12.54,0,18.81.04,1.58,0,2.28-.39,2.24-2.15-.09-5.44-.07-10.87,0-16.31.02-1.52-.45-2.02-2-2-6.33.07-12.64,0-18.97.05-1.36.01-1.96-.25-1.96-1.81s.61-1.67,1.87-1.67h.03Z"/>
      <path class="cls-1" d="M569.69,131.38c-5.67-1.7-11.56-2-17.43-2.12-1.45-.03-2.56-.46-2.69-2.07-.11-1.42.8-2.17,2.03-2.45,1.34-.29,2.75-.06,3.08,1.48.38,1.76,1.43,1.93,2.9,1.93,8.32-.04,16.64-.02,24.97-.02,1.04,0,2.1,0,3.16-.03,1.01-.03,1.52-.56,1.43-1.61-.19-2.4-.66-4.71-1.79-6.87-3.05-5.76-8.23-8.9-14.11-10.94-8.97-3.13-18.19-3.8-27.55-2.21-7.2,1.22-13.9,3.69-19.65,8.39-7.09,5.83-8.95,15.17-4.29,22.5,3.1,4.88,7.92,7.47,13.25,9.2,6.07,1.96,12.34,2.62,18.69,2.64.83,0,1.65.04,2.45.36,1.23.5,1.93,1.34,1.77,2.67-.14,1.2-1.01,1.83-2.17,1.93-1.32.12-2.61-.24-2.83-1.7-.26-1.71-1.31-1.82-2.62-1.82h-28.49c-1.07,0-2.15.03-2.08,1.65.2,4.39,1.74,8.2,4.81,11.36,4.67,4.78,10.61,7.12,16.96,8.58,7.28,1.68,14.65,1.6,22.01.87,5.83-.57,11.45-2.04,16.59-4.98,12.52-7.09,11.31-21.31,5.51-28.52-3.61-4.49-8.62-6.67-13.92-8.26h0Z"/>
      <path class="cls-1" d="M795.44,105.73c-9.26,0-18.53.03-27.79-.04-1.48-.01-2.05.51-2.38,1.86-1.14,4.85-2.36,9.69-3.56,14.53-.62,2.5-1.25,5.01-1.92,7.68-.75-.44-.73-.9-.83-1.32-1.71-6.99-3.46-13.98-5.11-20.99-.31-1.36-.9-1.75-2.26-1.75-9.15.06-18.3.03-27.46.03-3.27,0-3.28,0-2.21,3.06,7.27,21.16,14.55,42.32,21.8,63.49.35,1.01.86,1.31,1.91,1.31,9.15-.05,18.3-.06,27.46,0,1.34,0,1.99-.47,2.42-1.7,2.64-7.76,5.34-15.5,8.03-23.25,4.63-13.34,9.25-26.69,13.88-40.03.97-2.81.92-2.9-1.98-2.9h.01Z"/>
    </g>
    <g>
      <g>
        <path class="cls-1" d="M709.83,85.76c5.89-7.69,14.5-13.24,23.9-15.49,6.64-1.6,13.45-.39,20.12-1.58,2.51-.45,4.87-1.32,6.15-3.33.13-.21.26-.43.37-.66-.74-5.28-2.73-10.39-5.99-14.8-13.04-17.71-35.21-17.77-48.67-7.01h0c-14.85,11.52-17.79,32.75-6.56,47.32,1.73,2.25,3.68,4.22,5.77,5.92.83-3.71,2.49-7.21,4.91-10.37h-.01Z"/>
        <path class="cls-1" d="M755.95,72.48c-6.35,1.53-12.99.21-19.38,1.41-9.14,1.71-17.86,6.88-23.46,14.36-2.42,3.24-3.96,6.75-4.48,10.49,11.72,7.21,26.86,6.88,38.35-1.86,8.82-6.72,13.39-16.58,13.69-26.44-1.41.96-3.04,1.62-4.71,2.03h0Z"/>
      </g>
      <path class="cls-1" d="M829.49,103.67c2.06,0,2.18-.1,2.18-2.14v-63.58c0-2.06-.11-2.16-2.16-2.16h-27.63c-2.21,0-2.26.03-2.26,2.21,0,8.94.01,17.86.01,26.8,0,.75.15,1.53-.29,2.5v-.03c-.16-.38-.25-.48-.26-.58-1.24-9.67-2.53-19.34-3.7-29.02-.18-1.48-.71-1.93-2.18-1.93-9.43.06-18.87.07-28.3,0-1.62-.01-1.95.57-1.95,2.03.04,21.31.04,42.61,0,63.92,0,1.49.39,2.03,1.97,2.02,9.32-.06,18.64-.06,27.96,0,1.65.01,2.06-.57,2.06-2.13-.06-9.15-.02-18.3-.02-27.46v-2.97c.49.71.66,1.41.75,2.11,1.23,9.52,2.48,19.02,3.64,28.54.17,1.46.73,1.92,2.21,1.92,9.32-.06,18.64-.03,27.96-.03h0Z"/>
      <path class="cls-1" d="M622.06,101.5v-15.82c0-2.28-.06-2.33-2.34-2.33-10.32,0-20.64-.01-30.96.02-1.27,0-1.99-.06-2-1.72-.01-1.76.91-1.64,2.07-1.64,6.05.01,12.09,0,18.14,0,1.81,0,2.71-.87,2.71-2.62,0-5.27-.05-10.54.03-15.82.02-1.54-.44-2.03-1.99-2.01-6.38.07-12.76,0-19.13.05-1.37.02-1.79-.38-1.81-1.78-.02-1.47.54-1.7,1.84-1.7,10.38.04,20.75.02,31.13.02,2.16,0,2.32-.14,2.32-2.22v-15.98c0-2.06-.14-2.19-2.15-2.19h-62.24c-2.09,0-2.12.03-2.12,2.16v31.62h-.02c0,10.67.04,21.31-.03,31.96-.01,1.66.43,2.18,2.14,2.18,20.75-.05,41.49-.03,62.24-.03,2.01,0,2.17-.15,2.17-2.18v.02h-.01Z"/>
      <path class="cls-1" d="M900.17,63.36c-2.54-15.24-16.96-27.56-32.43-27.58-10.09-.01-20.19,0-30.29,0-2.29,0-2.3,0-2.3,2.33v31.62h-.01c0,10.65.03,21.29-.02,31.94,0,1.49.4,2.03,1.98,2.03,9.93-.07,19.86,0,29.79-.05,6.84-.04,13.25-1.81,18.8-5.77,11.88-8.47,16.91-19.95,14.49-34.52h.01ZM869.42,71.93c-.99,1.11-2.3,1.23-3.66,1.09-.57-.06-.69-.51-.69-.97v-2.5h-.02v-1.16c0-2.12.05-2.15,2.12-2,1.44.1,2.39.85,2.89,2.14.48,1.24.26,2.41-.64,3.4h.01Z"/>
      <path class="cls-1" d="M526.87,103.2c5.83-.58,11.44-2.06,16.58-5,13.17-7.45,11.27-23.32,3.96-30.13-5.3-4.94-11.88-6.95-18.84-7.95-3.74-.54-7.49-.78-11.28-.83-2.01-.02-3.1-1.66-2.23-3.21.57-1,1.55-1.38,2.68-1.33,1.12.04,2.05.5,2.23,1.62.28,1.7,1.34,1.88,2.75,1.88,9.1-.03,18.19-.02,27.29-.02.33,0,.67,0,.99-.03,1.01-.07,1.48-.6,1.38-1.65-.25-2.57-.79-5.03-2.07-7.3-3.07-5.46-8.09-8.45-13.72-10.44-9.01-3.17-18.3-3.84-27.71-2.23-7.15,1.21-13.84,3.59-19.49,8.33-5.65,4.75-8.18,10.68-6.31,18.05,1.59,6.23,6.06,9.9,11.65,12.38,6.98,3.08,14.39,3.91,21.93,4,.94.01,1.87-.01,2.77.37,1.22.52,1.92,1.39,1.72,2.7-.17,1.17-1.05,1.8-2.22,1.88-1.25.09-2.52-.21-2.73-1.6-.3-1.85-1.46-1.93-2.88-1.93-4.61.01-9.2,0-13.81,0h.01c-1.61-.01-3.22-.01-4.82-.01-3.28,0-6.54-.01-9.82.02-.98.01-1.92.13-1.87,1.53.15,4.33,1.63,8.14,4.62,11.28,4.7,4.92,10.73,7.31,17.21,8.78,7.29,1.66,14.65,1.59,22.01.85h0Z"/>
      <path class="cls-1" d="M689.44,73.41c.07-1.42-.23-2.09-1.88-2.08-8.98.07-17.97.04-26.96.02-.95-.01-1.66.25-2.35.94-1.64,1.63-3.78,1.56-5.3-.04-1.3-1.37-1.27-3.78.08-5.14,1.44-1.44,3.76-1.49,5.23.04.82.86,1.7,1.07,2.81,1.07,4.32-.03,8.65,0,12.97,0h0c4.56,0,9.1-.02,13.65,0,1.25,0,1.81-.4,1.73-1.75-.1-1.78-.27-3.54-.66-5.27-3.89-17.4-23.22-29.34-41.86-24.28-16.13,4.36-26.06,19.6-25.2,34.5.79,13.63,10.42,26.57,23.59,30.58,11.23,3.42,21.68,1.63,31.1-5.18,7.88-5.7,12.57-13.45,13.06-23.42h0Z"/>
    </g>
    <g>
      <path class="cls-1" d="M677.33,18.93v13.4c0,.64.2.84.84.83,3.96-.02,7.91-.02,11.88,0,.66,0,.9-.19.89-.88-.03-2.64.02-5.28-.03-7.91,0-.72.31-.72.83-.71.52,0,.9-.05.89.73-.05,2.64,0,5.28-.03,7.91,0,.61.2.86.85.86,3.98-.02,7.96-.02,11.95,0,.64,0,.85-.23.85-.85V5.7c0-.85-.06-.9-.92-.9h-11.74c-.91,0-.97.06-.97.99,0,2.81-.03,5.6.02,8.4,0,.7-.26.77-.84.78-.61.01-.88-.08-.87-.81.05-2.83.02-5.65.02-8.48,0-.85-.04-.89-.91-.89h-11.8c-.66,0-.88.17-.88.86.03,4.42,0,8.85,0,13.27h-.01Z"/>
      <path class="cls-1" d="M709.95,33.16h22.3c1.25,0,2.5-.01,3.75,0,.45,0,.72-.13.72-.61v-7.29c0-.41-.18-.58-.59-.58-.55.01-1.12,0-1.67,0h-11.74c-.23,0-.52.12-.67-.2-.29-.64.05-1.18.74-1.18h7.71c.71,0,1.06-.34,1.06-1.01,0-2.2-.02-4.4,0-6.6,0-.69-.17-.93-.89-.91-2.57.04-5.14.01-7.71.02-.52,0-.97.09-.97-.75s.44-.7.93-.7c4.31,0,8.61,0,12.92.01.67,0,.89-.23.88-.89-.03-2.24,0-4.49,0-6.74,0-.85-.05-.9-.9-.9h-25.91c-.91,0-.93,0-.93.93v26.39c0,.67.33,1,.98,1h0Z"/>
      <path class="cls-1" d="M647.35,19.15c1.97-.03,3.93,0,5.9-.02.57,0,.74.13.74.72-.03,4.15,0,8.28,0,12.43,0,.59.3.88.9.88h11.53c.61,0,.91-.32.91-.95v-12.28c0-.59.14-.81.77-.8,1.92.04,3.84.02,5.76.01.93,0,.95-.01.95-.92V5.71c0-.87-.03-.9-.9-.9h-26.53c-.59,0-.82.15-.82.78.02,4.26.02,8.52,0,12.78,0,.6.19.8.8.79h.01-.02Z"/>
    </g>
  </g>
  <g>
    <path class="cls-1" d="M347.91,137.74c-.01-.1-.04-.16-.13-.18-3.73.08-15.92-.18-16.94.09-.07.32-.04,1-.04,1.45.06.51-.15,1.22.17,1.51.96.13,4.89-.03,6.38.07.35,1.1-.14,14.52.18,15.64h.03c.73.07,2.09,0,2.98.03.34,0,.51,0,.58-.06.17-1.48,0-14.37.06-15.5,0-.06.03-.09.09-.11,1.2-.06,2.8,0,4.41-.02,2.34-.09,2.28.55,2.24-1.7,0-.57,0-1.03-.02-1.21Z"/>
    <path class="cls-1" d="M363.57,153.26c-1.29-.02-8.94.02-9.88-.02-.18-.03-.2-.17-.2-.63,0-1.08,0-2.54,0-3.66,0-.71.08-.64.81-.64.49,0,1,0,1.51,0h4.45c.87-.03,1.14.14,1.15-.51.02-.31,0-.84,0-1.32-.05-.71.19-1.28-.53-1.24-1.35,0-5.95,0-7.03,0-.17-.01-.29-.02-.34-.2-.09-.98-.01-2.67-.04-3.68,0-.51.02-.65.25-.67,1.09-.02,8.3,0,9.56-.01.28-.03.27-.18.3-.51.01-.4,0-1.19,0-1.74-.03-.53.05-.76-.19-.84-2.83-.03-9.26,0-11.94-.01-.69,0-1.19,0-1.42,0-.19,0-.22.02-.23.17.09,1.54-.18,17.6.1,18.61,3.04.03,7.98,0,11.11.01,1.34,0,2.34,0,2.66,0,.08,0,.12-.04.15-.11v-.04c.07-.5.05-2.05.03-2.52-.03-.29-.05-.39-.29-.42Z"/>
    <path class="cls-1" d="M382.06,137.63c-.5-.15-1.95-.05-2.61-.07-.42.04-.68-.09-.79.21-.04,1.26.03,11.2-.03,12.25h0c-1.88-2.54-8.11-11.45-8.75-12.29-.18-.19-.3-.15-.67-.17-.6,0-2.39-.01-2.91.01-.12.01-.22.04-.23.16-.01,1.08,0,10.11,0,15.16.05,1.79-.09,2.91.05,3.39.45.15.85.04,1.6.07.76-.02,1.23.05,1.66-.05.23-.09.12-.31.15-.55.07-3.36-.12-9.14.06-12.56.59.79,6.7,9.24,9.18,12.64.35.46.2.51,1.24.51.64-.05,1.52.11,2.08-.09.1-.6,0-2.64.04-5.41-.05-4.11.1-9.55-.05-13.22Z"/>
    <path class="cls-1" d="M400.95,137.63c-.5-.15-1.95-.05-2.61-.07-.42.04-.68-.09-.79.21-.04,1.26.03,11.2-.03,12.25h0c-1.88-2.54-8.11-11.45-8.75-12.29-.18-.19-.3-.15-.67-.17-.6,0-2.39-.01-2.91.01-.12.01-.22.04-.23.16-.01,1.08,0,10.11,0,15.16.05,1.79-.09,2.91.05,3.39.45.15.85.04,1.6.07.76-.02,1.23.05,1.66-.05.23-.09.12-.31.15-.55.07-3.36-.12-9.14.06-12.56.59.79,6.7,9.24,9.18,12.64.35.46.2.51,1.24.51.64-.05,1.52.11,2.08-.09.1-.6,0-2.64.04-5.41-.05-4.11.1-9.55-.05-13.22Z"/>
    <path class="cls-1" d="M407.5,137.58h-.03c-.56,0-2.94-.11-3.6.04-.08,1.68,0,14.4-.03,18.37,0,.19-.03.29.07.33.26.06.45.02.93.03.77,0,1.87,0,2.33,0,.23-.02.33.03.4-.1-.05-2.43.13-15.19-.06-18.68Z"/>
    <path class="cls-1" d="M416.1,144.84c-1.86-.31-3.1-1.57-2.13-3.37.9-1.46,3.34-1.54,4.87-1.06.91.3,1.69.92,2.11,1.79.34.55.25,1.45.9,1.71.63.16,1.43.03,2.07.02,1.61.02.64-2.02.39-2.86-1.69-4.02-7.27-4.59-10.88-3.23-3.08,1.06-4.46,4.95-2.86,7.76,1.33,2.18,3.58,2.51,6.1,2.96,1.45.3,2.84.38,4.08,1.19,1.34.95.8,3-.67,3.54-2.49,1.02-6.16.36-6.99-2.47-.11-.31-.18-.75-.34-.98l-.05-.06c-.19-.22-.53-.21-.81-.21-.61.08-1.79-.07-2.27.28-.23.22-.19.56-.16.87.29,2.5,1.95,4.47,4.38,5.35,5.27,2.01,13.49-.5,10.88-7.42-1.54-3.17-5.64-3.09-8.63-3.8Z"/>
    <path class="cls-1" d="M367.83,128.62c-.16-11.94-.07-23.89-.07-35.84,0-5.91-.13-11.82.06-17.72.18-5.71,2.95-9.39,7.3-10.31,7.64-1.61,12.69,2.76,12.71,11.18.05,17.46.07,34.92-.04,52.38-.02,2.82.58,3.85,3.66,3.78,10.1-.22,20.22-.19,30.32-.01,2.87.05,3.45-.94,3.44-3.6-.11-18.25.05-36.5-.09-54.74-.13-15.97-5.23-29.61-19.54-38.36-11.22-6.86-23.56-7.95-36.36-6.65-19.47,1.98-34.27,15.34-37.62,34.28-.35-1.28-.76-2.56-1.23-3.83-11.28-30.71-46.06-39.49-71.68-27.02-13.18,6.41-21.37,16.49-25.38,29.27-2.88-8.32-8.07-15.78-15.88-22.15-14.78-12.04-32.02-14.6-50.47-11.28-17.47,3.15-31.06,14.11-37.88,28.65-5.97-29.06-30.96-49.65-61.47-49.08C30.35,8.27,6.34,36.8,6.11,70.32c.81,36.52,27.92,63.25,63.08,62.48,25.59-.55,45.28-14.38,54.86-34.15-.13,23.09.03,46.18-.07,69.26-.01,2.67,1.14,2.93,3.3,2.92,10.11-.08,20.23-.16,30.34.04,3.02.06,3.7-.87,3.66-3.75-.15-13.37-.07-26.75-.07-40.45.82.23,1.08.26,1.3.37.58.29,1.14.64,1.72.93,15.28,7.59,30.67,7.68,45.58-.5,12.02-6.6,19.53-16.55,23.34-28.76,1.86,5.56,4.69,10.86,8.67,15.84,9.41,11.76,22.01,17.34,36.71,18.65,19.21,1.72,35.99-3.62,49.81-17.41,1.55-1.54,2.65-2.4-.02-4.27-5.56-3.9-10.72-8.36-16.13-12.48-5.8-4.41-5.84-4.35-11.67.03-11.04,8.29-26.91,6.31-34.75-4.35-.75-1.02-2.17-2.08-1.52-3.36.55-1.09,2.16-.53,3.29-.53,10.37-.03,20.75-.02,31.12-.02,10.64,0,21.27,0,31.91-.01.08,0,.15,0,.23,0,.02,1.94,0,3.83-.08,5.62,0,12.07.13,22.05-.08,32.03-.06,3.04.88,3.69,3.75,3.64,9.97-.18,19.95-.17,29.93,0,2.73.04,3.55-.65,3.52-3.46ZM84.33,96.43c-14.26,9.48-35.43,4.8-43.03-13.15-1.8-4.25-2.51-8.72-2.67-13.16.64-12.45,5.39-22.32,16.83-28.06,17.94-9.01,40.16,3.33,42.17,23.33,1.29,12.8-2.23,23.68-13.3,31.04ZM179.89,98.94c-10.06-.12-18.64-8.96-18.54-19.1.1-10.13,8.83-18.69,18.96-18.59,9.89.1,18.58,8.81,18.59,18.63,0,10.28-8.88,19.18-19.01,19.07ZM297.87,67.73c-5.12-.19-10.24-.05-15.36-.05-5.25,0-10.51-.08-15.76.03-2.57.05-3.1-.82-1.78-2.93,3.96-6.34,9.49-9.82,17.15-10.03,7.91-.22,13.62,3,17.45,9.83,1.13,2.03,1.47,3.26-1.7,3.15Z"/>
  </g>
</svg>